<svg width="555" height="91" viewBox="0 0 555 91" fill="none" xmlns="http://www.w3.org/2000/svg">
<g clip-path="url(#clip0_1_2)">
<path d="M137.24 34.6C136.227 32.7333 134.76 31.32 132.84 30.36C130.973 29.3467 128.76 28.84 126.2 28.84C121.773 28.84 118.227 30.3067 115.56 33.24C112.893 36.12 111.56 39.9867 111.56 44.84C111.56 50.0133 112.947 54.0667 115.72 57C118.547 59.88 122.413 61.32 127.32 61.32C130.68 61.32 133.507 60.4667 135.8 58.76C138.147 57.0533 139.853 54.6 140.92 51.4H123.56V41.32H153.32V54.04C152.307 57.4533 150.573 60.6267 148.12 63.56C145.72 66.4933 142.653 68.8667 138.92 70.68C135.187 72.4933 130.973 73.4 126.28 73.4C120.733 73.4 115.773 72.2 111.4 69.8C107.08 67.3467 103.693 63.96 101.24 59.64C98.84 55.32 97.64 50.3867 97.64 44.84C97.64 39.2933 98.84 34.36 101.24 30.04C103.693 25.6667 107.08 22.28 111.4 19.88C115.72 17.4267 120.653 16.2 126.2 16.2C132.92 16.2 138.573 17.8267 143.16 21.08C147.8 24.3333 150.867 28.84 152.36 34.6H137.24ZM158.577 44.84C158.577 39.2933 159.778 34.36 162.178 30.04C164.578 25.6667 167.911 22.28 172.178 19.88C176.498 17.4267 181.378 16.2 186.818 16.2C193.484 16.2 199.191 17.96 203.938 21.48C208.684 25 211.858 29.8 213.458 35.88H198.418C197.298 33.5333 195.698 31.7467 193.618 30.52C191.591 29.2933 189.271 28.68 186.658 28.68C182.444 28.68 179.031 30.1467 176.418 33.08C173.804 36.0133 172.498 39.9333 172.498 44.84C172.498 49.7467 173.804 53.6667 176.418 56.6C179.031 59.5333 182.444 61 186.658 61C189.271 61 191.591 60.3867 193.618 59.16C195.698 57.9333 197.298 56.1467 198.418 53.8H213.458C211.858 59.88 208.684 64.68 203.938 68.2C199.191 71.6667 193.484 73.4 186.818 73.4C181.378 73.4 176.498 72.2 172.178 69.8C167.911 67.3467 164.578 63.96 162.178 59.64C159.778 55.32 158.577 50.3867 158.577 44.84ZM235.515 16.84V73H221.835V16.84H235.515ZM296.382 44.2C299.635 44.8933 302.249 46.52 304.222 49.08C306.195 51.5867 307.182 54.4667 307.182 57.72C307.182 62.4133 305.529 66.1467 302.222 68.92C298.969 71.64 294.409 73 288.542 73H262.382V16.84H287.662C293.369 16.84 297.822 18.1467 301.022 20.76C304.275 23.3733 305.902 26.92 305.902 31.4C305.902 34.7067 305.022 37.4533 303.262 39.64C301.555 41.8267 299.262 43.3467 296.382 44.2ZM276.062 39.56H285.022C287.262 39.56 288.969 39.08 290.142 38.12C291.369 37.1067 291.982 35.64 291.982 33.72C291.982 31.8 291.369 30.3333 290.142 29.32C288.969 28.3067 287.262 27.8 285.022 27.8H276.062V39.56ZM286.142 61.96C288.435 61.96 290.195 61.4533 291.422 60.44C292.702 59.3733 293.342 57.8533 293.342 55.88C293.342 53.9067 292.675 52.36 291.342 51.24C290.062 50.12 288.275 49.56 285.982 49.56H276.062V61.96H286.142ZM321.996 23.72C319.596 23.72 317.623 23.0267 316.076 21.64C314.583 20.2 313.836 18.44 313.836 16.36C313.836 14.2267 314.583 12.4667 316.076 11.08C317.623 9.64 319.596 8.92 321.996 8.92C324.343 8.92 326.263 9.64 327.756 11.08C329.303 12.4667 330.076 14.2267 330.076 16.36C330.076 18.44 329.303 20.2 327.756 21.64C326.263 23.0267 324.343 23.72 321.996 23.72ZM328.796 28.36V73H315.116V28.36H328.796ZM363.59 61.4V73H356.63C351.67 73 347.803 71.8 345.03 69.4C342.257 66.9467 340.87 62.9733 340.87 57.48V39.72H335.43V28.36H340.87V17.48H354.55V28.36H363.51V39.72H354.55V57.64C354.55 58.9733 354.87 59.9333 355.51 60.52C356.15 61.1067 357.217 61.4 358.71 61.4H363.59ZM368.49 50.68C368.49 46.04 369.423 41.9867 371.29 38.52C373.21 35.0533 375.85 32.3867 379.21 30.52C382.623 28.6533 386.517 27.72 390.89 27.72C396.49 27.72 401.157 29.1867 404.89 32.12C408.677 35.0533 411.157 39.1867 412.33 44.52H397.77C396.543 41.1067 394.17 39.4 390.65 39.4C388.143 39.4 386.143 40.3867 384.65 42.36C383.157 44.28 382.41 47.0533 382.41 50.68C382.41 54.3067 383.157 57.1067 384.65 59.08C386.143 61 388.143 61.96 390.65 61.96C394.17 61.96 396.543 60.2533 397.77 56.84H412.33C411.157 62.0667 408.677 66.1733 404.89 69.16C401.103 72.1467 396.437 73.64 390.89 73.64C386.517 73.64 382.623 72.7067 379.21 70.84C375.85 68.9733 373.21 66.3067 371.29 62.84C369.423 59.3733 368.49 55.32 368.49 50.68ZM439.968 73.64C435.594 73.64 431.648 72.7067 428.128 70.84C424.661 68.9733 421.914 66.3067 419.888 62.84C417.914 59.3733 416.928 55.32 416.928 50.68C416.928 46.0933 417.941 42.0667 419.967 38.6C421.994 35.08 424.768 32.3867 428.288 30.52C431.808 28.6533 435.754 27.72 440.128 27.72C444.501 27.72 448.448 28.6533 451.968 30.52C455.488 32.3867 458.261 35.08 460.288 38.6C462.314 42.0667 463.328 46.0933 463.328 50.68C463.328 55.2667 462.288 59.32 460.208 62.84C458.181 66.3067 455.381 68.9733 451.808 70.84C448.288 72.7067 444.341 73.64 439.968 73.64ZM439.968 61.8C442.581 61.8 444.794 60.84 446.608 58.92C448.474 57 449.408 54.2533 449.408 50.68C449.408 47.1067 448.501 44.36 446.688 42.44C444.928 40.52 442.741 39.56 440.128 39.56C437.461 39.56 435.248 40.52 433.488 42.44C431.728 44.3067 430.848 47.0533 430.848 50.68C430.848 54.2533 431.701 57 433.408 58.92C435.168 60.84 437.354 61.8 439.968 61.8ZM477.465 23.72C475.065 23.72 473.092 23.0267 471.545 21.64C470.052 20.2 469.305 18.44 469.305 16.36C469.305 14.2267 470.052 12.4667 471.545 11.08C473.092 9.64 475.065 8.92 477.465 8.92C479.812 8.92 481.732 9.64 483.225 11.08C484.772 12.4667 485.545 14.2267 485.545 16.36C485.545 18.44 484.772 20.2 483.225 21.64C481.732 23.0267 479.812 23.72 477.465 23.72ZM484.265 28.36V73H470.585V28.36H484.265ZM521.379 27.88C526.605 27.88 530.765 29.5867 533.859 33C537.005 36.36 538.579 41 538.579 46.92V73H524.979V48.76C524.979 45.7733 524.205 43.4533 522.659 41.8C521.112 40.1467 519.032 39.32 516.419 39.32C513.805 39.32 511.725 40.1467 510.179 41.8C508.632 43.4533 507.859 45.7733 507.859 48.76V73H494.179V28.36H507.859V34.28C509.245 32.3067 511.112 30.76 513.459 29.64C515.805 28.4667 518.445 27.88 521.379 27.88Z" fill="black"/>
<path d="M56.0816 4H13.6087L9.36139 12.2M56.0816 4L60.3289 12.2L43.3397 45M56.0816 4L39.0924 36.8M9.36139 12.2H43.3397L34.8451 28.6L30.5978 20.4M9.36139 12.2L30.5978 53.2L13.6087 86M9.36139 12.2L39.0924 69.6H30.5978H47.587L22.1033 20.4M30.5978 20.4L47.587 53.2M30.5978 20.4L60.3289 77.8M39.0924 20.4H22.1033M22.1033 20.4L39.0924 53.2M60.3289 77.8L56.0816 86H13.6087M60.3289 77.8H26.3506L34.8451 61.4M13.6087 86L9.36139 77.8L26.3506 45" stroke="#4F45E4" stroke-width="5" stroke-linecap="round" stroke-linejoin="round"/>
</g>
<defs>
<clipPath id="clip0_1_2">
<rect width="555" height="91" fill="white"/>
</clipPath>
</defs>
</svg>
